/* XPM */
static char *jnotes_ev[]={
"16 16 217 2",
"#H c #122539",
"#t c #13263d",
"#6 c #152a42",
"#O c #172b42",
"#9 c #182c45",
"#d c #182d46",
"aJ c #182d47",
"#N c #182e47",
"#7 c #192d44",
".Z c #192e49",
"#5 c #1a2d44",
"aV c #1a2f4b",
"#P c #1c2f44",
"#8 c #1c2f46",
"#c c #1c3049",
"#C c #1d3049",
"#p c #1d304b",
"#Q c #1d3146",
"#R c #1d3147",
"#q c #1d3149",
"#T c #1d3247",
"#S c #1d3248",
"#D c #1e324a",
"#r c #1e334b",
"#s c #1e334c",
"aH c #223550",
"aW c #223551",
"#b c #223752",
"#o c #223957",
"aI c #233855",
"#B c #233a55",
"al c #253a52",
"aK c #263950",
"av c #2c3f51",
"#M c #2c445f",
"#e c #2f4257",
"#n c #354f6f",
"ak c #36465b",
".Y c #364d6a",
"#A c #364f6f",
"#4 c #374656",
"ad c #394d5f",
"#a c #395271",
"at c #3a4f64",
"#E c #3b2b3f",
"as c #41556b",
"aw c #465862",
"aX c #46596c",
"au c #495e6d",
"am c #495e75",
"#X c #526373",
".X c #526e8d",
"#G c #541f2f",
"#U c #572233",
"a. c #582436",
"aj c #5b6a78",
"#z c #5c7895",
"## c #5c7896",
"b. c #5f7181",
"#m c #5f7a98",
"ae c #61737b",
"#3 c #647078",
"aU c #687d8f",
"aL c #6d7e8b",
"b# c #70808b",
"#Z c #748da4",
"#0 c #758890",
"#L c #7b93a3",
"ac c #7d93a9",
"ax c #7e9094",
"aA c #7f888b",
"#u c #8291a0",
"af c #829396",
"ai c #849295",
"#F c #851b27",
".W c #87a2bb",
"aY c #8898a3",
".O c #89a8cd",
"#W c #8a202b",
"az c #8a9798",
"ay c #8b9d9f",
".P c #8baace",
".# c #8eacd0",
".Q c #8facd0",
".a c #8fadd0",
"#2 c #90a0a2",
".0 c #90a6b6",
".b c #90add0",
".R c #90afd2",
".c c #91afd1",
".K c #92abbe",
".d c #92afd1",
"#w c #93b0d3",
"ah c #94a2a3",
"ag c #94a7a8",
".S c #94b2d3",
"#y c #96b1c8",
".e c #96b2d3",
"aM c #97aaad",
"#1 c #97abab",
"#. c #97b1c9",
".J c #97b2c8",
"Qt c #97b3d3",
"#v c #97b4d4",
".T c #98b3d5",
".f c #98b4d4",
"#x c #99b5d4",
".g c #9bb5d6",
".U c #9bb6d6",
"aN c #9cafb1",
".h c #9eb9d7",
"#K c #9fb7c3",
".V c #9fb7d2",
"#l c #a0b9cf",
".i c #a1bbd9",
"aZ c #a2b1bd",
"aB c #a4acad",
".j c #a4bdda",
"ba c #a5b3ba",
"aG c #a5bbc8",
"aO c #a7b6ba",
"an c #a98691",
".k c #a9c0db",
"#Y c #abbac5",
".l c #abc2de",
"aT c #abc3dd",
".p c #abcbf1",
"a1 c #acbfc7",
".q c #accbf1",
".m c #aec5de",
"aS c #aec5df",
".r c #aecdf3",
".o c #b0cef2",
".s c #b0cff4",
".E c #b1cff2",
".F c #b1cff4",
".4 c #b1d0f4",
".t c #b3d1f4",
".3 c #b4d1f4",
".5 c #b4d2f4",
".u c #b5d3f4",
".G c #b5d4f4",
"a0 c #b6c7d6",
".1 c #b6cbe3",
".I c #b6cfe1",
".6 c #b6d5f4",
".n c #b7cce3",
"#h c #b7d3f5",
"#i c #b7d5f4",
".9 c #b9d3ea",
".v c #b9d6f4",
"aC c #bac5ca",
".7 c #bad6f4",
"#j c #bad7f4",
"#I c #bbccdb",
"#J c #bbd5f0",
"a2 c #bcced8",
".w c #bcd8f4",
"bm c #bdd0e7",
"#k c #bdd8ef",
".8 c #bedaf4",
"bl c #bfd2e6",
".2 c #bfd3e7",
"ar c #bfd6e8",
".x c #bfdbf4",
"aP c #c1cdd4",
"bn c #c1d4e8",
".y c #c3def4",
".H c #c4def2",
"bo c #c6d8ea",
".z c #c6e0f3",
".A c #c8e1f2",
"aa c #c9d7e0",
"bp c #c9daec",
"a9 c #cbdce6",
"bq c #cdddee",
"aF c #cde4f5",
".B c #cee7f4",
"bb c #cfdae3",
"ap c #cfdfee",
".L c #d0e8f1",
"#f c #d1dee7",
"br c #d1e0f0",
"a3 c #d2e2f1",
".C c #d2eaf4",
"a# c #d4676d",
"bs c #d4e3f0",
"a8 c #d4e9f4",
"bh c #d6e1eb",
".M c #d6ebf4",
"bt c #d7e5f2",
"aq c #d7e5f3",
"bi c #d8e2eb",
"be c #d8ecf5",
"ab c #d9e4ec",
"a5 c #d9e7f4",
"bf c #d9ebf4",
".D c #d9ecf5",
"ao c #da6d74",
"a6 c #dce9f4",
"bu c #ddeaf5",
"bg c #deebf4",
".N c #deecf5",
"bv c #dfebf5",
"aE c #e1ebf4",
"a7 c #e1ecf5",
"bk c #e2ecf5",
"#g c #e3ecf5",
"a4 c #e58992",
"bw c #e5edf5",
"aR c #e6bcc3",
"bj c #e7acb2",
"aD c #e8acb3",
"bd c #ef6e72",
"bc c #f43f41",
"aQ c #f91010",
"#V c #fb0000",
"Qt.#.a.b.c.d.e.f.g.h.i.j.k.l.m.n",
".o.p.q.r.s.t.u.v.w.x.y.z.A.B.C.D",
".E.q.r.F.t.G.v.w.x.H.I.J.K.L.M.N",
".b.O.P.Q.R.S.T.U.V.W.X.Y.Z.0.1.2",
".3.4.5.6.7.8.9#.###a#b#c#d#e#f#g",
"#h.5#i#j#k#l#m#n#o#p#q#r#s#t#u#g",
"#v#w#x#y#z#A#B#C#q#r#D#E#F#G#H#I",
"#J#K#L#M#N#O#P#Q#R#S#T#U#V#W#X#Y",
"#Z#0#1#2#3#4#5#6#7#8#9a.#Va#aaab",
"acadaeafagahaiajakalaman#Vaoapaq",
"arasatauavawaxayazaAaBaC#VaDaE#g",
"aFaGaHaI#baJaKaLaMaNaOaPaQaRaE#g",
"aSaTaUaVaWaXaYaZa0a1a2a3a4a5a6a7",
"a8.Ma9b.b#babbaEaEaEaEaRbcbdaE#g",
"bebfbgbhbiaEaEaEaEaEaEbj#VbcaEbk",
"blbmbnbobpbqbrbsbta5bubv#g#g#gbw"};
