/* XPM */
static char *jnotes[]={
"16 16 213 2",
"#G c #122539",
"#t c #13263d",
"#U c #14293f",
"#5 c #152a42",
"#F c #172a40",
"#N c #172b42",
"#7 c #182c45",
"#d c #182d46",
"aJ c #182d47",
"#M c #182e47",
"#6 c #192d44",
".Z c #192e49",
"#4 c #1a2d44",
"aT c #1a2f4b",
"#O c #1c2f44",
"#T c #1c2f46",
"#c c #1c3049",
"#C c #1d3049",
"#p c #1d304b",
"#P c #1d3146",
"#Q c #1d3147",
"#q c #1d3149",
"#8 c #1d314a",
"#S c #1d3247",
"#R c #1d3248",
"#E c #1e3249",
"#D c #1e324a",
"#r c #1e334b",
"#s c #1e334c",
"aH c #223550",
"aU c #223551",
"#b c #223752",
"#o c #223957",
"aI c #233855",
"#B c #233a55",
"ak c #253a52",
"aK c #263950",
"#V c #283c50",
"av c #2c3f51",
"#L c #2c445f",
"#e c #2f4257",
"#n c #354f6f",
"aj c #36465b",
".Y c #364d6a",
"#A c #364f6f",
"#3 c #374656",
"ac c #394d5f",
"#a c #395271",
"at c #3a4f64",
"as c #41556b",
"aw c #465862",
"aV c #46596c",
"au c #495e6d",
"al c #495e75",
"#W c #526373",
".X c #526e8d",
"#9 c #586c7e",
"ai c #5b6a78",
"#z c #5c7895",
"## c #5c7896",
"a8 c #5f7181",
"#m c #5f7a98",
"ad c #61737b",
"#2 c #647078",
"aS c #687d8f",
"aL c #6d7e8b",
"a9 c #70808b",
"#Y c #748da4",
"#Z c #758890",
"#K c #7b93a3",
"ab c #7d93a9",
"ax c #7e9094",
"aA c #7f888b",
"#u c #8291a0",
"ae c #829396",
"ah c #849295",
".W c #87a2bb",
"aW c #8898a3",
".O c #89a8cd",
"az c #8a9798",
"ay c #8b9d9f",
".P c #8baace",
".# c #8eacd0",
".Q c #8facd0",
".a c #8fadd0",
"#1 c #90a0a2",
".0 c #90a6b6",
".b c #90add0",
".R c #90afd2",
".c c #91afd1",
".K c #92abbe",
".d c #92afd1",
"#w c #93b0d3",
"ag c #94a2a3",
"af c #94a7a8",
".S c #94b2d3",
"am c #95a7b5",
"#y c #96b1c8",
".e c #96b2d3",
"aM c #97aaad",
"#0 c #97abab",
"#. c #97b1c9",
".J c #97b2c8",
"Qt c #97b3d3",
"#v c #97b4d4",
".T c #98b3d5",
".f c #98b4d4",
"#x c #99b5d4",
".g c #9bb5d6",
".U c #9bb6d6",
"aN c #9cafb1",
".h c #9eb9d7",
"#J c #9fb7c3",
".V c #9fb7d2",
"#l c #a0b9cf",
".i c #a1bbd9",
"aX c #a2b1bd",
"aB c #a4acad",
".j c #a4bdda",
"b. c #a5b3ba",
"aG c #a5bbc8",
"aO c #a7b6ba",
".k c #a9c0db",
"#X c #abbac5",
".l c #abc2de",
"aR c #abc3dd",
".p c #abcbf1",
"aZ c #acbfc7",
".q c #accbf1",
".m c #aec5de",
"aQ c #aec5df",
".r c #aecdf3",
".o c #b0cef2",
".s c #b0cff4",
"a. c #b1c2cd",
".E c #b1cff2",
".F c #b1cff4",
".4 c #b1d0f4",
".t c #b3d1f4",
".3 c #b4d1f4",
".5 c #b4d2f4",
".u c #b5d3f4",
".G c #b5d4f4",
"aY c #b6c7d6",
".1 c #b6cbe3",
".I c #b6cfe1",
".6 c #b6d5f4",
".n c #b7cce3",
"#h c #b7d3f5",
"#i c #b7d5f4",
".9 c #b9d3ea",
".v c #b9d6f4",
"aC c #bac5ca",
".7 c #bad6f4",
"#j c #bad7f4",
"#H c #bbccdb",
"#I c #bbd5f0",
"a0 c #bcced8",
".w c #bcd8f4",
"ao c #bdccd9",
"bi c #bdd0e7",
"#k c #bdd8ef",
".8 c #bedaf4",
"bh c #bfd2e6",
".2 c #bfd3e7",
"ar c #bfd6e8",
".x c #bfdbf4",
"an c #c0d0d9",
"aP c #c1cdd4",
"bj c #c1d4e8",
".y c #c3def4",
".H c #c4def2",
"bk c #c6d8ea",
".z c #c6e0f3",
".A c #c8e1f2",
"a# c #c9d7e0",
"bl c #c9daec",
"a7 c #cbdce6",
"bm c #cdddee",
"aF c #cde4f5",
".B c #cee7f4",
"b# c #cfdae3",
"ap c #cfdfee",
".L c #d0e8f1",
"#f c #d1dee7",
"bn c #d1e0f0",
"a1 c #d2e2f1",
".C c #d2eaf4",
"bo c #d4e3f0",
"a6 c #d4e9f4",
"aD c #d6e1ea",
"bd c #d6e1eb",
"a2 c #d6e4f3",
".M c #d6ebf4",
"bp c #d7e5f2",
"aq c #d7e5f3",
"be c #d8e2eb",
"ba c #d8ecf5",
"aa c #d9e4ec",
"a3 c #d9e7f4",
"bb c #d9ebf4",
".D c #d9ecf5",
"a4 c #dce9f4",
"bq c #ddeaf5",
"bc c #deebf4",
".N c #deecf5",
"br c #dfebf5",
"bf c #e0ebf3",
"aE c #e1ebf4",
"a5 c #e1ecf5",
"bg c #e2ecf5",
"#g c #e3ecf5",
"bs c #e5edf5",
"Qt.#.a.b.c.d.e.f.g.h.i.j.k.l.m.n",
".o.p.q.r.s.t.u.v.w.x.y.z.A.B.C.D",
".E.q.r.F.t.G.v.w.x.H.I.J.K.L.M.N",
".b.O.P.Q.R.S.T.U.V.W.X.Y.Z.0.1.2",
".3.4.5.6.7.8.9#.###a#b#c#d#e#f#g",
"#h.5#i#j#k#l#m#n#o#p#q#r#s#t#u#g",
"#v#w#x#y#z#A#B#C#q#r#D#E#E#F#G#H",
"#I#J#K#L#M#N#O#P#Q#R#S#T#U#V#W#X",
"#Y#Z#0#1#2#3#4#5#6#T#7#8#9a.a#aa",
"abacadaeafagahaiajakalamanaoapaq",
"arasatauavawaxayazaAaBaCaDaEaE#g",
"aFaGaHaI#baJaKaLaMaNaOaPaEaEaE#g",
"aQaRaSaTaUaVaWaXaYaZa0a1a2a3a4a5",
"a6.Ma7a8a9b.b#aEaEaEaEaEaEaEaE#g",
"babbbcbdbeaEaEaEaEaEaEbfaEaEaEbg",
"bhbibjbkblbmbnbobpa3bqbr#g#g#gbs"};
