<?xml version="1.0" encoding="us-ascii" standalone="no"?><svg xmlns="http://www.w3.org/2000/svg" xmlns:xlink="http://www.w3.org/1999/xlink" contentStyleType="text/css" height="1266px" preserveAspectRatio="none" style="width:1050px;height:1266px;background:#FFFFFF;" version="1.1" viewBox="0 0 1050 1266" width="1050px" zoomAndPan="magnify"><defs/><g><text fill="#000000" font-family="sans-serif" font-size="14" font-weight="bold" lengthAdjust="spacing" textLength="329" x="353.5" y="22.9951">Gym Scheduling Software Class Diagram</text><!--cluster Memoranda--><g id="cluster_Memoranda"><path d="M8.5,598.2969 L104.5,598.2969 A3.75,3.75 0 0 1 107,600.7969 L114,620.5938 L532.5,620.5938 A2.5,2.5 0 0 1 535,623.0938 L535,802.7969 A2.5,2.5 0 0 1 532.5,805.2969 L8.5,805.2969 A2.5,2.5 0 0 1 6,802.7969 L6,600.7969 A2.5,2.5 0 0 1 8.5,598.2969 " fill="none" style="stroke:#000000;stroke-width:1.5;"/><line style="stroke:#000000;stroke-width:1.5;" x1="6" x2="114" y1="620.5938" y2="620.5938"/><text fill="#000000" font-family="sans-serif" font-size="14" font-weight="bold" lengthAdjust="spacing" textLength="95" x="10" y="613.292">Memoranda</text></g><!--class Project--><g id="elem_Project"><rect codeLine="4" fill="#F1F1F1" height="48" id="Project" rx="2.5" ry="2.5" style="stroke:#181818;stroke-width:0.5;" width="84" x="22" y="633.2969"/><ellipse cx="37" cy="649.2969" fill="#ADD1B2" rx="11" ry="11" style="stroke:#181818;stroke-width:1.0;"/><path d="M39.3438,644.9688 C38.4063,644.5313 37.8125,644.3906 36.9375,644.3906 C34.3125,644.3906 32.3125,646.4688 32.3125,649.1875 L32.3125,650.3125 C32.3125,652.8906 34.4219,654.7813 37.3125,654.7813 C38.5313,654.7813 39.6875,654.4844 40.4375,653.9375 C41.0156,653.5313 41.3438,653.0781 41.3438,652.6875 C41.3438,652.2344 40.9531,651.8438 40.4844,651.8438 C40.2656,651.8438 40.0625,651.9219 39.875,652.1094 C39.4219,652.5938 39.4219,652.5938 39.2344,652.6875 C38.8125,652.9531 38.125,653.0781 37.3594,653.0781 C35.3125,653.0781 34.0156,651.9844 34.0156,650.2813 L34.0156,649.1875 C34.0156,647.4063 35.2656,646.0938 37,646.0938 C37.5781,646.0938 38.1875,646.25 38.6563,646.5 C39.1406,646.7813 39.3125,647 39.4063,647.4063 C39.4688,647.8125 39.5,647.9375 39.6406,648.0625 C39.7813,648.2031 40.0156,648.3125 40.2344,648.3125 C40.5,648.3125 40.7656,648.1719 40.9375,647.9531 C41.0469,647.7969 41.0781,647.6094 41.0781,647.1875 L41.0781,645.7656 C41.0781,645.3281 41.0625,645.2031 40.9688,645.0469 C40.8125,644.7813 40.5313,644.6406 40.2344,644.6406 C39.9375,644.6406 39.7344,644.7344 39.5156,645.0469 L39.3438,644.9688 Z " fill="#000000"/><text fill="#000000" font-family="sans-serif" font-size="14" lengthAdjust="spacing" textLength="52" x="51" y="654.1436">Project</text><line style="stroke:#181818;stroke-width:0.5;" x1="23" x2="105" y1="665.2969" y2="665.2969"/><line style="stroke:#181818;stroke-width:0.5;" x1="23" x2="105" y1="673.2969" y2="673.2969"/></g><!--class Task--><g id="elem_Task"><rect codeLine="5" fill="#F1F1F1" height="48" id="Task" rx="2.5" ry="2.5" style="stroke:#181818;stroke-width:0.5;" width="65" x="440.5" y="741.2969"/><ellipse cx="455.5" cy="757.2969" fill="#ADD1B2" rx="11" ry="11" style="stroke:#181818;stroke-width:1.0;"/><path d="M457.8438,752.9688 C456.9063,752.5313 456.3125,752.3906 455.4375,752.3906 C452.8125,752.3906 450.8125,754.4688 450.8125,757.1875 L450.8125,758.3125 C450.8125,760.8906 452.9219,762.7813 455.8125,762.7813 C457.0313,762.7813 458.1875,762.4844 458.9375,761.9375 C459.5156,761.5313 459.8438,761.0781 459.8438,760.6875 C459.8438,760.2344 459.4531,759.8438 458.9844,759.8438 C458.7656,759.8438 458.5625,759.9219 458.375,760.1094 C457.9219,760.5938 457.9219,760.5938 457.7344,760.6875 C457.3125,760.9531 456.625,761.0781 455.8594,761.0781 C453.8125,761.0781 452.5156,759.9844 452.5156,758.2813 L452.5156,757.1875 C452.5156,755.4063 453.7656,754.0938 455.5,754.0938 C456.0781,754.0938 456.6875,754.25 457.1563,754.5 C457.6406,754.7813 457.8125,755 457.9063,755.4063 C457.9688,755.8125 458,755.9375 458.1406,756.0625 C458.2813,756.2031 458.5156,756.3125 458.7344,756.3125 C459,756.3125 459.2656,756.1719 459.4375,755.9531 C459.5469,755.7969 459.5781,755.6094 459.5781,755.1875 L459.5781,753.7656 C459.5781,753.3281 459.5625,753.2031 459.4688,753.0469 C459.3125,752.7813 459.0313,752.6406 458.7344,752.6406 C458.4375,752.6406 458.2344,752.7344 458.0156,753.0469 L457.8438,752.9688 Z " fill="#000000"/><text fill="#000000" font-family="sans-serif" font-size="14" lengthAdjust="spacing" textLength="33" x="469.5" y="762.1436">Task</text><line style="stroke:#181818;stroke-width:0.5;" x1="441.5" x2="504.5" y1="773.2969" y2="773.2969"/><line style="stroke:#181818;stroke-width:0.5;" x1="441.5" x2="504.5" y1="781.2969" y2="781.2969"/></g><!--class EventsManager--><g id="elem_EventsManager"><rect codeLine="6" fill="#F1F1F1" height="48" id="EventsManager" rx="2.5" ry="2.5" style="stroke:#181818;stroke-width:0.5;" width="142" x="377" y="633.2969"/><ellipse cx="392" cy="649.2969" fill="#ADD1B2" rx="11" ry="11" style="stroke:#181818;stroke-width:1.0;"/><path d="M394.3438,644.9688 C393.4063,644.5313 392.8125,644.3906 391.9375,644.3906 C389.3125,644.3906 387.3125,646.4688 387.3125,649.1875 L387.3125,650.3125 C387.3125,652.8906 389.4219,654.7813 392.3125,654.7813 C393.5313,654.7813 394.6875,654.4844 395.4375,653.9375 C396.0156,653.5313 396.3438,653.0781 396.3438,652.6875 C396.3438,652.2344 395.9531,651.8438 395.4844,651.8438 C395.2656,651.8438 395.0625,651.9219 394.875,652.1094 C394.4219,652.5938 394.4219,652.5938 394.2344,652.6875 C393.8125,652.9531 393.125,653.0781 392.3594,653.0781 C390.3125,653.0781 389.0156,651.9844 389.0156,650.2813 L389.0156,649.1875 C389.0156,647.4063 390.2656,646.0938 392,646.0938 C392.5781,646.0938 393.1875,646.25 393.6563,646.5 C394.1406,646.7813 394.3125,647 394.4063,647.4063 C394.4688,647.8125 394.5,647.9375 394.6406,648.0625 C394.7813,648.2031 395.0156,648.3125 395.2344,648.3125 C395.5,648.3125 395.7656,648.1719 395.9375,647.9531 C396.0469,647.7969 396.0781,647.6094 396.0781,647.1875 L396.0781,645.7656 C396.0781,645.3281 396.0625,645.2031 395.9688,645.0469 C395.8125,644.7813 395.5313,644.6406 395.2344,644.6406 C394.9375,644.6406 394.7344,644.7344 394.5156,645.0469 L394.3438,644.9688 Z " fill="#000000"/><text fill="#000000" font-family="sans-serif" font-size="14" lengthAdjust="spacing" textLength="110" x="406" y="654.1436">EventsManager</text><line style="stroke:#181818;stroke-width:0.5;" x1="378" x2="518" y1="665.2969" y2="665.2969"/><line style="stroke:#181818;stroke-width:0.5;" x1="378" x2="518" y1="673.2969" y2="673.2969"/></g><!--class Note--><g id="elem_Note"><rect codeLine="7" fill="#F1F1F1" height="48" id="Note" rx="2.5" ry="2.5" style="stroke:#181818;stroke-width:0.5;" width="67" x="274.5" y="633.2969"/><ellipse cx="289.5" cy="649.2969" fill="#ADD1B2" rx="11" ry="11" style="stroke:#181818;stroke-width:1.0;"/><path d="M291.8438,644.9688 C290.9063,644.5313 290.3125,644.3906 289.4375,644.3906 C286.8125,644.3906 284.8125,646.4688 284.8125,649.1875 L284.8125,650.3125 C284.8125,652.8906 286.9219,654.7813 289.8125,654.7813 C291.0313,654.7813 292.1875,654.4844 292.9375,653.9375 C293.5156,653.5313 293.8438,653.0781 293.8438,652.6875 C293.8438,652.2344 293.4531,651.8438 292.9844,651.8438 C292.7656,651.8438 292.5625,651.9219 292.375,652.1094 C291.9219,652.5938 291.9219,652.5938 291.7344,652.6875 C291.3125,652.9531 290.625,653.0781 289.8594,653.0781 C287.8125,653.0781 286.5156,651.9844 286.5156,650.2813 L286.5156,649.1875 C286.5156,647.4063 287.7656,646.0938 289.5,646.0938 C290.0781,646.0938 290.6875,646.25 291.1563,646.5 C291.6406,646.7813 291.8125,647 291.9063,647.4063 C291.9688,647.8125 292,647.9375 292.1406,648.0625 C292.2813,648.2031 292.5156,648.3125 292.7344,648.3125 C293,648.3125 293.2656,648.1719 293.4375,647.9531 C293.5469,647.7969 293.5781,647.6094 293.5781,647.1875 L293.5781,645.7656 C293.5781,645.3281 293.5625,645.2031 293.4688,645.0469 C293.3125,644.7813 293.0313,644.6406 292.7344,644.6406 C292.4375,644.6406 292.2344,644.7344 292.0156,645.0469 L291.8438,644.9688 Z " fill="#000000"/><text fill="#000000" font-family="sans-serif" font-size="14" lengthAdjust="spacing" textLength="35" x="303.5" y="654.1436">Note</text><line style="stroke:#181818;stroke-width:0.5;" x1="275.5" x2="340.5" y1="665.2969" y2="665.2969"/><line style="stroke:#181818;stroke-width:0.5;" x1="275.5" x2="340.5" y1="673.2969" y2="673.2969"/></g><!--class Resource--><g id="elem_Resource"><rect codeLine="8" fill="#F1F1F1" height="48" id="Resource" rx="2.5" ry="2.5" style="stroke:#181818;stroke-width:0.5;" width="98" x="141" y="633.2969"/><ellipse cx="156" cy="649.2969" fill="#ADD1B2" rx="11" ry="11" style="stroke:#181818;stroke-width:1.0;"/><path d="M158.3438,644.9688 C157.4063,644.5313 156.8125,644.3906 155.9375,644.3906 C153.3125,644.3906 151.3125,646.4688 151.3125,649.1875 L151.3125,650.3125 C151.3125,652.8906 153.4219,654.7813 156.3125,654.7813 C157.5313,654.7813 158.6875,654.4844 159.4375,653.9375 C160.0156,653.5313 160.3438,653.0781 160.3438,652.6875 C160.3438,652.2344 159.9531,651.8438 159.4844,651.8438 C159.2656,651.8438 159.0625,651.9219 158.875,652.1094 C158.4219,652.5938 158.4219,652.5938 158.2344,652.6875 C157.8125,652.9531 157.125,653.0781 156.3594,653.0781 C154.3125,653.0781 153.0156,651.9844 153.0156,650.2813 L153.0156,649.1875 C153.0156,647.4063 154.2656,646.0938 156,646.0938 C156.5781,646.0938 157.1875,646.25 157.6563,646.5 C158.1406,646.7813 158.3125,647 158.4063,647.4063 C158.4688,647.8125 158.5,647.9375 158.6406,648.0625 C158.7813,648.2031 159.0156,648.3125 159.2344,648.3125 C159.5,648.3125 159.7656,648.1719 159.9375,647.9531 C160.0469,647.7969 160.0781,647.6094 160.0781,647.1875 L160.0781,645.7656 C160.0781,645.3281 160.0625,645.2031 159.9688,645.0469 C159.8125,644.7813 159.5313,644.6406 159.2344,644.6406 C158.9375,644.6406 158.7344,644.7344 158.5156,645.0469 L158.3438,644.9688 Z " fill="#000000"/><text fill="#000000" font-family="sans-serif" font-size="14" lengthAdjust="spacing" textLength="66" x="170" y="654.1436">Resource</text><line style="stroke:#181818;stroke-width:0.5;" x1="142" x2="238" y1="665.2969" y2="665.2969"/><line style="stroke:#181818;stroke-width:0.5;" x1="142" x2="238" y1="673.2969" y2="673.2969"/></g><!--class Class--><g id="elem_Class"><rect codeLine="10" fill="#F1F1F1" height="129.4844" id="Class" rx="2.5" ry="2.5" style="stroke:#181818;stroke-width:0.5;" width="265" x="447.5" y="849.2969"/><ellipse cx="557.75" cy="865.2969" fill="#ADD1B2" rx="11" ry="11" style="stroke:#181818;stroke-width:1.0;"/><path d="M560.0938,860.9688 C559.1563,860.5313 558.5625,860.3906 557.6875,860.3906 C555.0625,860.3906 553.0625,862.4688 553.0625,865.1875 L553.0625,866.3125 C553.0625,868.8906 555.1719,870.7813 558.0625,870.7813 C559.2813,870.7813 560.4375,870.4844 561.1875,869.9375 C561.7656,869.5313 562.0938,869.0781 562.0938,868.6875 C562.0938,868.2344 561.7031,867.8438 561.2344,867.8438 C561.0156,867.8438 560.8125,867.9219 560.625,868.1094 C560.1719,868.5938 560.1719,868.5938 559.9844,868.6875 C559.5625,868.9531 558.875,869.0781 558.1094,869.0781 C556.0625,869.0781 554.7656,867.9844 554.7656,866.2813 L554.7656,865.1875 C554.7656,863.4063 556.0156,862.0938 557.75,862.0938 C558.3281,862.0938 558.9375,862.25 559.4063,862.5 C559.8906,862.7813 560.0625,863 560.1563,863.4063 C560.2188,863.8125 560.25,863.9375 560.3906,864.0625 C560.5313,864.2031 560.7656,864.3125 560.9844,864.3125 C561.25,864.3125 561.5156,864.1719 561.6875,863.9531 C561.7969,863.7969 561.8281,863.6094 561.8281,863.1875 L561.8281,861.7656 C561.8281,861.3281 561.8125,861.2031 561.7188,861.0469 C561.5625,860.7813 561.2813,860.6406 560.9844,860.6406 C560.6875,860.6406 560.4844,860.7344 560.2656,861.0469 L560.0938,860.9688 Z " fill="#000000"/><text fill="#000000" font-family="sans-serif" font-size="14" lengthAdjust="spacing" textLength="36" x="578.25" y="870.1436">Class</text><line style="stroke:#181818;stroke-width:0.5;" x1="448.5" x2="711.5" y1="881.2969" y2="881.2969"/><ellipse cx="458.5" cy="894.9453" fill="none" rx="3" ry="3" style="stroke:#038048;stroke-width:1.0;"/><text fill="#000000" font-family="sans-serif" font-size="14" lengthAdjust="spacing" textLength="87" x="467.5" y="898.292">level: String</text><ellipse cx="458.5" cy="911.2422" fill="none" rx="3" ry="3" style="stroke:#038048;stroke-width:1.0;"/><text fill="#000000" font-family="sans-serif" font-size="14" lengthAdjust="spacing" textLength="109" x="467.5" y="914.5889">trainer: Trainer</text><ellipse cx="458.5" cy="927.5391" fill="none" rx="3" ry="3" style="stroke:#038048;stroke-width:1.0;"/><text fill="#000000" font-family="sans-serif" font-size="14" lengthAdjust="spacing" textLength="89" x="467.5" y="930.8857">room: Room</text><ellipse cx="458.5" cy="943.8359" fill="none" rx="3" ry="3" style="stroke:#038048;stroke-width:1.0;"/><text fill="#000000" font-family="sans-serif" font-size="14" lengthAdjust="spacing" textLength="129" x="467.5" y="947.1826">isPrivate: Boolean</text><ellipse cx="458.5" cy="960.1328" fill="none" rx="3" ry="3" style="stroke:#038048;stroke-width:1.0;"/><text fill="#000000" font-family="sans-serif" font-size="14" lengthAdjust="spacing" textLength="239" x="467.5" y="963.4795">enrolledStudents: List&lt;Student&gt;</text><line style="stroke:#181818;stroke-width:0.5;" x1="448.5" x2="711.5" y1="970.7813" y2="970.7813"/></g><!--class Task--><g id="elem_Task"><rect fill="#F1F1F1" height="48" id="Task" rx="2.5" ry="2.5" style="stroke:#181818;stroke-width:0.5;" width="65" x="623.5" y="741.2969"/><ellipse cx="638.5" cy="757.2969" fill="#ADD1B2" rx="11" ry="11" style="stroke:#181818;stroke-width:1.0;"/><path d="M640.8438,752.9688 C639.9063,752.5313 639.3125,752.3906 638.4375,752.3906 C635.8125,752.3906 633.8125,754.4688 633.8125,757.1875 L633.8125,758.3125 C633.8125,760.8906 635.9219,762.7813 638.8125,762.7813 C640.0313,762.7813 641.1875,762.4844 641.9375,761.9375 C642.5156,761.5313 642.8438,761.0781 642.8438,760.6875 C642.8438,760.2344 642.4531,759.8438 641.9844,759.8438 C641.7656,759.8438 641.5625,759.9219 641.375,760.1094 C640.9219,760.5938 640.9219,760.5938 640.7344,760.6875 C640.3125,760.9531 639.625,761.0781 638.8594,761.0781 C636.8125,761.0781 635.5156,759.9844 635.5156,758.2813 L635.5156,757.1875 C635.5156,755.4063 636.7656,754.0938 638.5,754.0938 C639.0781,754.0938 639.6875,754.25 640.1563,754.5 C640.6406,754.7813 640.8125,755 640.9063,755.4063 C640.9688,755.8125 641,755.9375 641.1406,756.0625 C641.2813,756.2031 641.5156,756.3125 641.7344,756.3125 C642,756.3125 642.2656,756.1719 642.4375,755.9531 C642.5469,755.7969 642.5781,755.6094 642.5781,755.1875 L642.5781,753.7656 C642.5781,753.3281 642.5625,753.2031 642.4688,753.0469 C642.3125,752.7813 642.0313,752.6406 641.7344,752.6406 C641.4375,752.6406 641.2344,752.7344 641.0156,753.0469 L640.8438,752.9688 Z " fill="#000000"/><text fill="#000000" font-family="sans-serif" font-size="14" lengthAdjust="spacing" textLength="33" x="652.5" y="762.1436">Task</text><line style="stroke:#181818;stroke-width:0.5;" x1="624.5" x2="687.5" y1="773.2969" y2="773.2969"/><line style="stroke:#181818;stroke-width:0.5;" x1="624.5" x2="687.5" y1="781.2969" y2="781.2969"/></g><!--class User--><g id="elem_User"><rect codeLine="17" fill="#F1F1F1" height="96.8906" id="User" rx="2.5" ry="2.5" style="stroke:#181818;stroke-width:0.5;" width="171" x="656.5" y="152.2969"/><ellipse cx="722.25" cy="168.2969" fill="#ADD1B2" rx="11" ry="11" style="stroke:#181818;stroke-width:1.0;"/><path d="M724.5938,163.9688 C723.6563,163.5313 723.0625,163.3906 722.1875,163.3906 C719.5625,163.3906 717.5625,165.4688 717.5625,168.1875 L717.5625,169.3125 C717.5625,171.8906 719.6719,173.7813 722.5625,173.7813 C723.7813,173.7813 724.9375,173.4844 725.6875,172.9375 C726.2656,172.5313 726.5938,172.0781 726.5938,171.6875 C726.5938,171.2344 726.2031,170.8438 725.7344,170.8438 C725.5156,170.8438 725.3125,170.9219 725.125,171.1094 C724.6719,171.5938 724.6719,171.5938 724.4844,171.6875 C724.0625,171.9531 723.375,172.0781 722.6094,172.0781 C720.5625,172.0781 719.2656,170.9844 719.2656,169.2813 L719.2656,168.1875 C719.2656,166.4063 720.5156,165.0938 722.25,165.0938 C722.8281,165.0938 723.4375,165.25 723.9063,165.5 C724.3906,165.7813 724.5625,166 724.6563,166.4063 C724.7188,166.8125 724.75,166.9375 724.8906,167.0625 C725.0313,167.2031 725.2656,167.3125 725.4844,167.3125 C725.75,167.3125 726.0156,167.1719 726.1875,166.9531 C726.2969,166.7969 726.3281,166.6094 726.3281,166.1875 L726.3281,164.7656 C726.3281,164.3281 726.3125,164.2031 726.2188,164.0469 C726.0625,163.7813 725.7813,163.6406 725.4844,163.6406 C725.1875,163.6406 724.9844,163.7344 724.7656,164.0469 L724.5938,163.9688 Z " fill="#000000"/><text fill="#000000" font-family="sans-serif" font-size="14" lengthAdjust="spacing" textLength="31" x="742.75" y="173.1436">User</text><line style="stroke:#181818;stroke-width:0.5;" x1="657.5" x2="826.5" y1="184.2969" y2="184.2969"/><ellipse cx="667.5" cy="197.9453" fill="none" rx="3" ry="3" style="stroke:#038048;stroke-width:1.0;"/><text fill="#000000" font-family="sans-serif" font-size="14" lengthAdjust="spacing" textLength="119" x="676.5" y="201.292">beltRank: String</text><ellipse cx="667.5" cy="214.2422" fill="none" rx="3" ry="3" style="stroke:#038048;stroke-width:1.0;"/><text fill="#000000" font-family="sans-serif" font-size="14" lengthAdjust="spacing" textLength="145" x="676.5" y="217.5889">trainingRank: String</text><ellipse cx="667.5" cy="230.5391" fill="none" rx="3" ry="3" style="stroke:#038048;stroke-width:1.0;"/><text fill="#000000" font-family="sans-serif" font-size="14" lengthAdjust="spacing" textLength="143" x="676.5" y="233.8857">classes: List&lt;Class&gt;</text><line style="stroke:#181818;stroke-width:0.5;" x1="657.5" x2="826.5" y1="241.1875" y2="241.1875"/></g><!--class Resource--><g id="elem_Resource"><rect fill="#F1F1F1" height="48" id="Resource" rx="2.5" ry="2.5" style="stroke:#181818;stroke-width:0.5;" width="98" x="861" y="44.2969"/><ellipse cx="876" cy="60.2969" fill="#ADD1B2" rx="11" ry="11" style="stroke:#181818;stroke-width:1.0;"/><path d="M878.3438,55.9688 C877.4063,55.5313 876.8125,55.3906 875.9375,55.3906 C873.3125,55.3906 871.3125,57.4688 871.3125,60.1875 L871.3125,61.3125 C871.3125,63.8906 873.4219,65.7813 876.3125,65.7813 C877.5313,65.7813 878.6875,65.4844 879.4375,64.9375 C880.0156,64.5313 880.3438,64.0781 880.3438,63.6875 C880.3438,63.2344 879.9531,62.8438 879.4844,62.8438 C879.2656,62.8438 879.0625,62.9219 878.875,63.1094 C878.4219,63.5938 878.4219,63.5938 878.2344,63.6875 C877.8125,63.9531 877.125,64.0781 876.3594,64.0781 C874.3125,64.0781 873.0156,62.9844 873.0156,61.2813 L873.0156,60.1875 C873.0156,58.4063 874.2656,57.0938 876,57.0938 C876.5781,57.0938 877.1875,57.25 877.6563,57.5 C878.1406,57.7813 878.3125,58 878.4063,58.4063 C878.4688,58.8125 878.5,58.9375 878.6406,59.0625 C878.7813,59.2031 879.0156,59.3125 879.2344,59.3125 C879.5,59.3125 879.7656,59.1719 879.9375,58.9531 C880.0469,58.7969 880.0781,58.6094 880.0781,58.1875 L880.0781,56.7656 C880.0781,56.3281 880.0625,56.2031 879.9688,56.0469 C879.8125,55.7813 879.5313,55.6406 879.2344,55.6406 C878.9375,55.6406 878.7344,55.7344 878.5156,56.0469 L878.3438,55.9688 Z " fill="#000000"/><text fill="#000000" font-family="sans-serif" font-size="14" lengthAdjust="spacing" textLength="66" x="890" y="65.1436">Resource</text><line style="stroke:#181818;stroke-width:0.5;" x1="862" x2="958" y1="76.2969" y2="76.2969"/><line style="stroke:#181818;stroke-width:0.5;" x1="862" x2="958" y1="84.2969" y2="84.2969"/></g><!--class Trainer--><g id="elem_Trainer"><rect codeLine="23" fill="#F1F1F1" height="80.5938" id="Trainer" rx="2.5" ry="2.5" style="stroke:#181818;stroke-width:0.5;" width="276" x="413" y="309.2969"/><ellipse cx="521.25" cy="325.2969" fill="#ADD1B2" rx="11" ry="11" style="stroke:#181818;stroke-width:1.0;"/><path d="M523.5938,320.9688 C522.6563,320.5313 522.0625,320.3906 521.1875,320.3906 C518.5625,320.3906 516.5625,322.4688 516.5625,325.1875 L516.5625,326.3125 C516.5625,328.8906 518.6719,330.7813 521.5625,330.7813 C522.7813,330.7813 523.9375,330.4844 524.6875,329.9375 C525.2656,329.5313 525.5938,329.0781 525.5938,328.6875 C525.5938,328.2344 525.2031,327.8438 524.7344,327.8438 C524.5156,327.8438 524.3125,327.9219 524.125,328.1094 C523.6719,328.5938 523.6719,328.5938 523.4844,328.6875 C523.0625,328.9531 522.375,329.0781 521.6094,329.0781 C519.5625,329.0781 518.2656,327.9844 518.2656,326.2813 L518.2656,325.1875 C518.2656,323.4063 519.5156,322.0938 521.25,322.0938 C521.8281,322.0938 522.4375,322.25 522.9063,322.5 C523.3906,322.7813 523.5625,323 523.6563,323.4063 C523.7188,323.8125 523.75,323.9375 523.8906,324.0625 C524.0313,324.2031 524.2656,324.3125 524.4844,324.3125 C524.75,324.3125 525.0156,324.1719 525.1875,323.9531 C525.2969,323.7969 525.3281,323.6094 525.3281,323.1875 L525.3281,321.7656 C525.3281,321.3281 525.3125,321.2031 525.2188,321.0469 C525.0625,320.7813 524.7813,320.6406 524.4844,320.6406 C524.1875,320.6406 523.9844,320.7344 523.7656,321.0469 L523.5938,320.9688 Z " fill="#000000"/><text fill="#000000" font-family="sans-serif" font-size="14" lengthAdjust="spacing" textLength="51" x="541.75" y="330.1436">Trainer</text><line style="stroke:#181818;stroke-width:0.5;" x1="414" x2="688" y1="341.2969" y2="341.2969"/><ellipse cx="424" cy="354.9453" fill="none" rx="3" ry="3" style="stroke:#038048;stroke-width:1.0;"/><text fill="#000000" font-family="sans-serif" font-size="14" lengthAdjust="spacing" textLength="228" x="433" y="358.292">availableTimes: List&lt;TimeSlot&gt;</text><ellipse cx="424" cy="371.2422" fill="none" rx="3" ry="3" style="stroke:#038048;stroke-width:1.0;"/><text fill="#000000" font-family="sans-serif" font-size="14" lengthAdjust="spacing" textLength="250" x="433" y="374.5889">privateAppointments: List&lt;Class&gt;</text><line style="stroke:#181818;stroke-width:0.5;" x1="414" x2="688" y1="381.8906" y2="381.8906"/></g><!--class Student--><g id="elem_Student"><rect codeLine="28" fill="#F1F1F1" height="64.2969" id="Student" rx="2.5" ry="2.5" style="stroke:#181818;stroke-width:0.5;" width="230" x="795" y="317.7969"/><ellipse cx="876.75" cy="333.7969" fill="#ADD1B2" rx="11" ry="11" style="stroke:#181818;stroke-width:1.0;"/><path d="M879.0938,329.4688 C878.1563,329.0313 877.5625,328.8906 876.6875,328.8906 C874.0625,328.8906 872.0625,330.9688 872.0625,333.6875 L872.0625,334.8125 C872.0625,337.3906 874.1719,339.2813 877.0625,339.2813 C878.2813,339.2813 879.4375,338.9844 880.1875,338.4375 C880.7656,338.0313 881.0938,337.5781 881.0938,337.1875 C881.0938,336.7344 880.7031,336.3438 880.2344,336.3438 C880.0156,336.3438 879.8125,336.4219 879.625,336.6094 C879.1719,337.0938 879.1719,337.0938 878.9844,337.1875 C878.5625,337.4531 877.875,337.5781 877.1094,337.5781 C875.0625,337.5781 873.7656,336.4844 873.7656,334.7813 L873.7656,333.6875 C873.7656,331.9063 875.0156,330.5938 876.75,330.5938 C877.3281,330.5938 877.9375,330.75 878.4063,331 C878.8906,331.2813 879.0625,331.5 879.1563,331.9063 C879.2188,332.3125 879.25,332.4375 879.3906,332.5625 C879.5313,332.7031 879.7656,332.8125 879.9844,332.8125 C880.25,332.8125 880.5156,332.6719 880.6875,332.4531 C880.7969,332.2969 880.8281,332.1094 880.8281,331.6875 L880.8281,330.2656 C880.8281,329.8281 880.8125,329.7031 880.7188,329.5469 C880.5625,329.2813 880.2813,329.1406 879.9844,329.1406 C879.6875,329.1406 879.4844,329.2344 879.2656,329.5469 L879.0938,329.4688 Z " fill="#000000"/><text fill="#000000" font-family="sans-serif" font-size="14" lengthAdjust="spacing" textLength="58" x="897.25" y="338.6436">Student</text><line style="stroke:#181818;stroke-width:0.5;" x1="796" x2="1024" y1="349.7969" y2="349.7969"/><ellipse cx="806" cy="363.4453" fill="none" rx="3" ry="3" style="stroke:#038048;stroke-width:1.0;"/><text fill="#000000" font-family="sans-serif" font-size="14" lengthAdjust="spacing" textLength="204" x="815" y="366.792">enrolledClasses: List&lt;Class&gt;</text><line style="stroke:#181818;stroke-width:0.5;" x1="796" x2="1024" y1="374.0938" y2="374.0938"/></g><!--class Room--><g id="elem_Room"><rect codeLine="34" fill="#F1F1F1" height="96.8906" id="Room" rx="2.5" ry="2.5" style="stroke:#181818;stroke-width:0.5;" width="163" x="471.5" y="1038.2969"/><ellipse cx="527.75" cy="1054.2969" fill="#ADD1B2" rx="11" ry="11" style="stroke:#181818;stroke-width:1.0;"/><path d="M530.0938,1049.9688 C529.1563,1049.5313 528.5625,1049.3906 527.6875,1049.3906 C525.0625,1049.3906 523.0625,1051.4688 523.0625,1054.1875 L523.0625,1055.3125 C523.0625,1057.8906 525.1719,1059.7813 528.0625,1059.7813 C529.2813,1059.7813 530.4375,1059.4844 531.1875,1058.9375 C531.7656,1058.5313 532.0938,1058.0781 532.0938,1057.6875 C532.0938,1057.2344 531.7031,1056.8438 531.2344,1056.8438 C531.0156,1056.8438 530.8125,1056.9219 530.625,1057.1094 C530.1719,1057.5938 530.1719,1057.5938 529.9844,1057.6875 C529.5625,1057.9531 528.875,1058.0781 528.1094,1058.0781 C526.0625,1058.0781 524.7656,1056.9844 524.7656,1055.2813 L524.7656,1054.1875 C524.7656,1052.4063 526.0156,1051.0938 527.75,1051.0938 C528.3281,1051.0938 528.9375,1051.25 529.4063,1051.5 C529.8906,1051.7813 530.0625,1052 530.1563,1052.4063 C530.2188,1052.8125 530.25,1052.9375 530.3906,1053.0625 C530.5313,1053.2031 530.7656,1053.3125 530.9844,1053.3125 C531.25,1053.3125 531.5156,1053.1719 531.6875,1052.9531 C531.7969,1052.7969 531.8281,1052.6094 531.8281,1052.1875 L531.8281,1050.7656 C531.8281,1050.3281 531.8125,1050.2031 531.7188,1050.0469 C531.5625,1049.7813 531.2813,1049.6406 530.9844,1049.6406 C530.6875,1049.6406 530.4844,1049.7344 530.2656,1050.0469 L530.0938,1049.9688 Z " fill="#000000"/><text fill="#000000" font-family="sans-serif" font-size="14" lengthAdjust="spacing" textLength="42" x="548.25" y="1059.1436">Room</text><line style="stroke:#181818;stroke-width:0.5;" x1="472.5" x2="633.5" y1="1070.2969" y2="1070.2969"/><ellipse cx="482.5" cy="1083.9453" fill="none" rx="3" ry="3" style="stroke:#038048;stroke-width:1.0;"/><text fill="#000000" font-family="sans-serif" font-size="14" lengthAdjust="spacing" textLength="93" x="491.5" y="1087.292">name: String</text><ellipse cx="482.5" cy="1100.2422" fill="none" rx="3" ry="3" style="stroke:#038048;stroke-width:1.0;"/><text fill="#000000" font-family="sans-serif" font-size="14" lengthAdjust="spacing" textLength="134" x="491.5" y="1103.5889">currentClass: Class</text><ellipse cx="482.5" cy="1116.5391" fill="none" rx="3" ry="3" style="stroke:#038048;stroke-width:1.0;"/><text fill="#000000" font-family="sans-serif" font-size="14" lengthAdjust="spacing" textLength="137" x="491.5" y="1119.8857">schedule: Schedule</text><line style="stroke:#181818;stroke-width:0.5;" x1="472.5" x2="633.5" y1="1127.1875" y2="1127.1875"/></g><!--class Schedule--><g id="elem_Schedule"><rect codeLine="40" fill="#F1F1F1" height="64.2969" id="Schedule" rx="2.5" ry="2.5" style="stroke:#181818;stroke-width:0.5;" width="169" x="282.5" y="1195.2969"/><ellipse cx="330.25" cy="1211.2969" fill="#ADD1B2" rx="11" ry="11" style="stroke:#181818;stroke-width:1.0;"/><path d="M332.5938,1206.9688 C331.6563,1206.5313 331.0625,1206.3906 330.1875,1206.3906 C327.5625,1206.3906 325.5625,1208.4688 325.5625,1211.1875 L325.5625,1212.3125 C325.5625,1214.8906 327.6719,1216.7813 330.5625,1216.7813 C331.7813,1216.7813 332.9375,1216.4844 333.6875,1215.9375 C334.2656,1215.5313 334.5938,1215.0781 334.5938,1214.6875 C334.5938,1214.2344 334.2031,1213.8438 333.7344,1213.8438 C333.5156,1213.8438 333.3125,1213.9219 333.125,1214.1094 C332.6719,1214.5938 332.6719,1214.5938 332.4844,1214.6875 C332.0625,1214.9531 331.375,1215.0781 330.6094,1215.0781 C328.5625,1215.0781 327.2656,1213.9844 327.2656,1212.2813 L327.2656,1211.1875 C327.2656,1209.4063 328.5156,1208.0938 330.25,1208.0938 C330.8281,1208.0938 331.4375,1208.25 331.9063,1208.5 C332.3906,1208.7813 332.5625,1209 332.6563,1209.4063 C332.7188,1209.8125 332.75,1209.9375 332.8906,1210.0625 C333.0313,1210.2031 333.2656,1210.3125 333.4844,1210.3125 C333.75,1210.3125 334.0156,1210.1719 334.1875,1209.9531 C334.2969,1209.7969 334.3281,1209.6094 334.3281,1209.1875 L334.3281,1207.7656 C334.3281,1207.3281 334.3125,1207.2031 334.2188,1207.0469 C334.0625,1206.7813 333.7813,1206.6406 333.4844,1206.6406 C333.1875,1206.6406 332.9844,1206.7344 332.7656,1207.0469 L332.5938,1206.9688 Z " fill="#000000"/><text fill="#000000" font-family="sans-serif" font-size="14" lengthAdjust="spacing" textLength="65" x="350.75" y="1216.1436">Schedule</text><line style="stroke:#181818;stroke-width:0.5;" x1="283.5" x2="450.5" y1="1227.2969" y2="1227.2969"/><ellipse cx="293.5" cy="1240.9453" fill="none" rx="3" ry="3" style="stroke:#038048;stroke-width:1.0;"/><text fill="#000000" font-family="sans-serif" font-size="14" lengthAdjust="spacing" textLength="143" x="302.5" y="1244.292">classes: List&lt;Class&gt;</text><line style="stroke:#181818;stroke-width:0.5;" x1="283.5" x2="450.5" y1="1251.5938" y2="1251.5938"/></g><!--class Project--><g id="elem_Project"><rect fill="#F1F1F1" height="48" id="Project" rx="2.5" ry="2.5" style="stroke:#181818;stroke-width:0.5;" width="84" x="325" y="1062.7969"/><ellipse cx="340" cy="1078.7969" fill="#ADD1B2" rx="11" ry="11" style="stroke:#181818;stroke-width:1.0;"/><path d="M342.3438,1074.4688 C341.4063,1074.0313 340.8125,1073.8906 339.9375,1073.8906 C337.3125,1073.8906 335.3125,1075.9688 335.3125,1078.6875 L335.3125,1079.8125 C335.3125,1082.3906 337.4219,1084.2813 340.3125,1084.2813 C341.5313,1084.2813 342.6875,1083.9844 343.4375,1083.4375 C344.0156,1083.0313 344.3438,1082.5781 344.3438,1082.1875 C344.3438,1081.7344 343.9531,1081.3438 343.4844,1081.3438 C343.2656,1081.3438 343.0625,1081.4219 342.875,1081.6094 C342.4219,1082.0938 342.4219,1082.0938 342.2344,1082.1875 C341.8125,1082.4531 341.125,1082.5781 340.3594,1082.5781 C338.3125,1082.5781 337.0156,1081.4844 337.0156,1079.7813 L337.0156,1078.6875 C337.0156,1076.9063 338.2656,1075.5938 340,1075.5938 C340.5781,1075.5938 341.1875,1075.75 341.6563,1076 C342.1406,1076.2813 342.3125,1076.5 342.4063,1076.9063 C342.4688,1077.3125 342.5,1077.4375 342.6406,1077.5625 C342.7813,1077.7031 343.0156,1077.8125 343.2344,1077.8125 C343.5,1077.8125 343.7656,1077.6719 343.9375,1077.4531 C344.0469,1077.2969 344.0781,1077.1094 344.0781,1076.6875 L344.0781,1075.2656 C344.0781,1074.8281 344.0625,1074.7031 343.9688,1074.5469 C343.8125,1074.2813 343.5313,1074.1406 343.2344,1074.1406 C342.9375,1074.1406 342.7344,1074.2344 342.5156,1074.5469 L342.3438,1074.4688 Z " fill="#000000"/><text fill="#000000" font-family="sans-serif" font-size="14" lengthAdjust="spacing" textLength="52" x="354" y="1083.6436">Project</text><line style="stroke:#181818;stroke-width:0.5;" x1="326" x2="408" y1="1094.7969" y2="1094.7969"/><line style="stroke:#181818;stroke-width:0.5;" x1="326" x2="408" y1="1102.7969" y2="1102.7969"/></g><!--reverse link Task to Class--><g id="link_Task_Class"><path d="M656,809.4869 C656,809.4869 656,849.2409 656,849.2409 " fill="none" id="Task-backto-Class" style="stroke:#181818;stroke-width:1.0;"/><polygon fill="none" points="649,809.4869,656,789.4869,663,809.4869,649,809.4869" style="stroke:#181818;stroke-width:1.0;"/></g><!--reverse link Resource to User--><g id="link_Resource_User"><path d="M910,112.3869 C910,112.3869 910,201.2969 910,201.2969 C910,201.2969 869.302,201.2969 827.969,201.2969 " fill="none" id="Resource-backto-User" style="stroke:#181818;stroke-width:1.0;"/><polygon fill="none" points="903,112.3869,910,92.3869,917,112.3869,903,112.3869" style="stroke:#181818;stroke-width:1.0;"/></g><!--reverse link User to Trainer--><g id="link_User_Trainer"><path d="M672.75,269.5849 C672.75,269.5849 672.75,308.8789 672.75,308.8789 " fill="none" id="User-backto-Trainer" style="stroke:#181818;stroke-width:1.0;"/><polygon fill="none" points="665.75,269.5849,672.75,249.5869,679.75,269.5849,665.75,269.5849" style="stroke:#181818;stroke-width:1.0;"/></g><!--reverse link User to Student--><g id="link_User_Student"><path d="M811.25,269.5849 C811.25,269.5849 811.25,317.3569 811.25,317.3569 " fill="none" id="User-backto-Student" style="stroke:#181818;stroke-width:1.0;"/><polygon fill="none" points="804.25,269.5849,811.25,249.5869,818.25,269.5849,804.25,269.5849" style="stroke:#181818;stroke-width:1.0;"/></g><!--reverse link Resource to Room--><g id="link_Resource_Room"><path d="M979.146,68.2969 C979.146,68.2969 1043,68.2969 1043,68.2969 C1043,68.2969 1043,1087.2969 1043,1087.2969 C1043,1087.2969 774.152,1087.2969 634.739,1087.2969 " fill="none" id="Resource-backto-Room" style="stroke:#181818;stroke-width:1.0;"/><polygon fill="none" points="979.146,75.2969,959.146,68.2969,979.146,61.2969,979.146,75.2969" style="stroke:#181818;stroke-width:1.0;"/></g><!--reverse link Project to Schedule--><g id="link_Project_Schedule"><path d="M367,1130.9499 C367,1130.9499 367,1195.0468 367,1195.0468 " fill="none" id="Project-backto-Schedule" style="stroke:#181818;stroke-width:1.0;"/><polygon fill="none" points="360,1130.9499,367,1110.9499,374,1130.9499,360,1130.9499" style="stroke:#181818;stroke-width:1.0;"/></g><!--reverse link Project to Schedule--><g id="link_Project_Schedule"><path codeLine="44" d="M64,686.4249 C64,686.4249 64,1227.2969 64,1227.2969 C64,1227.2969 192.557,1227.2969 282.195,1227.2969 " fill="none" id="Project-backto-Schedule-1" style="stroke:#181818;stroke-width:1.0;stroke-dasharray:7.0,7.0;"/><polygon fill="#181818" points="64,681.4249,60,690.4249,64,686.4249,68,690.4249,64,681.4249" style="stroke:#181818;stroke-width:1.0;"/><text fill="#000000" font-family="sans-serif" font-size="13" lengthAdjust="spacing" textLength="52" x="11" y="1062.0248">extends</text></g><!--reverse link Task to Class--><g id="link_Task_Class"><path codeLine="45" d="M476.5,794.4869 C476.5,794.4869 476.5,849.2409 476.5,849.2409 " fill="none" id="Task-backto-Class-1" style="stroke:#181818;stroke-width:1.0;stroke-dasharray:7.0,7.0;"/><polygon fill="#181818" points="476.5,789.4869,472.5,798.4869,476.5,794.4869,480.5,798.4869,476.5,789.4869" style="stroke:#181818;stroke-width:1.0;"/><text fill="#000000" font-family="sans-serif" font-size="13" lengthAdjust="spacing" textLength="52" x="423.5" y="817.9308">extends</text></g><!--reverse link Resource to User--><g id="link_Resource_User"><path codeLine="46" d="M190,628.1019 C190,628.1019 190,201.2969 190,201.2969 C190,201.2969 501.309,201.2969 656.356,201.2969 " fill="none" id="Resource-backto-User-1" style="stroke:#181818;stroke-width:1.0;stroke-dasharray:7.0,7.0;"/><polygon fill="#181818" points="190,633.1019,194,624.1019,190,628.1019,186,624.1019,190,633.1019" style="stroke:#181818;stroke-width:1.0;"/><text fill="#000000" font-family="sans-serif" font-size="13" lengthAdjust="spacing" textLength="52" x="156.775" y="197.3638">extends</text></g><!--reverse link Resource to Room--><g id="link_Resource_Room"><path codeLine="47" d="M190,686.3499 C190,686.3499 190,1051.2969 190,1051.2969 C190,1051.2969 364.02,1051.2969 471.083,1051.2969 " fill="none" id="Resource-backto-Room-1" style="stroke:#181818;stroke-width:1.0;stroke-dasharray:7.0,7.0;"/><polygon fill="#181818" points="190,681.3499,186,690.3499,190,686.3499,194,690.3499,190,681.3499" style="stroke:#181818;stroke-width:1.0;"/><text fill="#000000" font-family="sans-serif" font-size="13" lengthAdjust="spacing" textLength="52" x="137" y="1005.4318">extends</text></g><!--link User to Class--><g id="link_User_Class"><path codeLine="48" d="M696.833,249.5269 C696.833,374.7429 696.833,707.8289 696.833,849.0539 " fill="none" id="User-Class" style="stroke:#181818;stroke-width:1.0;"/><polygon fill="#000000" points="622.833,545.8553,625.7719,536.8102,619.8941,536.8102,622.833,545.8553" style="stroke:#000000;stroke-width:1.0;"/><text fill="#000000" font-family="sans-serif" font-size="13" lengthAdjust="spacing" textLength="64" x="631.833" y="545.3558">schedules</text><text fill="#000000" font-family="sans-serif" font-size="13" lengthAdjust="spacing" textLength="8" x="682.2262" y="269.1659">1</text><text fill="#000000" font-family="sans-serif" font-size="13" lengthAdjust="spacing" textLength="37" x="670.5882" y="838.2">many</text></g><!--link Trainer to Class--><g id="link_Trainer_Class"><path codeLine="49" d="M571.25,390.3579 C571.25,487.0959 571.25,732.0079 571.25,849.2789 " fill="none" id="Trainer-Class" style="stroke:#181818;stroke-width:1.0;"/><polygon fill="#000000" points="510.25,616.3853,513.1889,607.3402,507.3111,607.3402,510.25,616.3853" style="stroke:#000000;stroke-width:1.0;"/><text fill="#000000" font-family="sans-serif" font-size="13" lengthAdjust="spacing" textLength="51" x="519.25" y="615.8858">teaches</text><text fill="#000000" font-family="sans-serif" font-size="13" lengthAdjust="spacing" textLength="8" x="565.7383" y="409.8254">1</text><text fill="#000000" font-family="sans-serif" font-size="13" lengthAdjust="spacing" textLength="37" x="531.2695" y="838.4496">many</text></g><!--link Student to Class--><g id="link_Student_Class"><path codeLine="50" d="M794.729,350.2969 C747.924,350.2969 704.667,350.2969 704.667,350.2969 C704.667,350.2969 704.667,701.1429 704.667,849.1559 " fill="none" id="Student-Class" style="stroke:#181818;stroke-width:1.0;"/><polygon fill="#000000" points="644.7787,568.1827,649.2778,559.8037,643.4935,558.7594,644.7787,568.1827" style="stroke:#000000;stroke-width:1.0;"/><text fill="#000000" font-family="sans-serif" font-size="13" lengthAdjust="spacing" textLength="49" x="654.667" y="567.7628">attends</text><text fill="#000000" font-family="sans-serif" font-size="13" lengthAdjust="spacing" textLength="8" x="779.0882" y="346.9101">1</text><text fill="#000000" font-family="sans-serif" font-size="13" lengthAdjust="spacing" textLength="37" x="720.3259" y="838.3131">many</text></g><!--link Class to Room--><g id="link_Class_Room"><path codeLine="51" d="M553,978.7079 C553,998.4589 553,1019.8139 553,1038.2849 " fill="none" id="Class-Room" style="stroke:#181818;stroke-width:1.0;"/><polygon fill="#000000" points="558,1005.0633,560.9389,996.0182,555.0611,996.0182,558,1005.0633" style="stroke:#000000;stroke-width:1.0;"/><text fill="#000000" font-family="sans-serif" font-size="13" lengthAdjust="spacing" textLength="70" x="567" y="1004.5638">happens in</text><text fill="#000000" font-family="sans-serif" font-size="13" lengthAdjust="spacing" textLength="8" x="541.6094" y="998.6755">1</text><text fill="#000000" font-family="sans-serif" font-size="13" lengthAdjust="spacing" textLength="8" x="544.4125" y="1027.1428">1</text></g><!--link Room to Schedule--><g id="link_Room_Schedule"><path codeLine="52" d="M471.224,1123.2969 C455.596,1123.2969 444,1123.2969 444,1123.2969 C444,1123.2969 444,1164.6872 444,1195.2449 " fill="none" id="Room-Schedule" style="stroke:#181818;stroke-width:1.0;"/><polygon fill="#000000" points="409.2305,1141.9017,415.1803,1134.4821,409.6828,1132.4019,409.2305,1141.9017" style="stroke:#000000;stroke-width:1.0;"/><text fill="#000000" font-family="sans-serif" font-size="13" lengthAdjust="spacing" textLength="23" x="420" y="1141.7258">has</text><text fill="#000000" font-family="sans-serif" font-size="13" lengthAdjust="spacing" textLength="8" x="455.5846" y="1122.9574">1</text><text fill="#000000" font-family="sans-serif" font-size="13" lengthAdjust="spacing" textLength="8" x="451.0563" y="1184.1373">1</text></g><!--link EventsManager to Task--><g id="link_EventsManager_Task"><path codeLine="53" d="M473,681.5339 C473,699.3209 473,723.3729 473,741.1409 " fill="none" id="EventsManager-Task" style="stroke:#181818;stroke-width:1.0;"/><polygon fill="#000000" points="478,707.9033,480.9389,698.8582,475.0611,698.8582,478,707.9033" style="stroke:#000000;stroke-width:1.0;"/><text fill="#000000" font-family="sans-serif" font-size="13" lengthAdjust="spacing" textLength="60" x="487" y="707.4038">manages</text><text fill="#000000" font-family="sans-serif" font-size="13" lengthAdjust="spacing" textLength="8" x="470.1188" y="701.3528">1</text><text fill="#000000" font-family="sans-serif" font-size="13" lengthAdjust="spacing" textLength="37" x="431.2594" y="730.1129">many</text></g><!--link Trainer to Note--><g id="link_Trainer_Note"><path codeLine="54" d="M412.817,350.2969 C358.109,350.2969 308,350.2969 308,350.2969 C308,350.2969 308,560.8349 308,633.2069 " fill="none" id="Trainer-Note" style="stroke:#181818;stroke-width:1.0;"/><polygon fill="#000000" points="257.2629,435.5988,263.1612,428.1382,257.6495,426.0961,257.2629,435.5988" style="stroke:#000000;stroke-width:1.0;"/><text fill="#000000" font-family="sans-serif" font-size="13" lengthAdjust="spacing" textLength="39" x="268" y="435.4108">writes</text><text fill="#000000" font-family="sans-serif" font-size="13" lengthAdjust="spacing" textLength="8" x="397.0414" y="346.9957">1</text><text fill="#000000" font-family="sans-serif" font-size="13" lengthAdjust="spacing" textLength="37" x="266.2594" y="622.1958">many</text></g><!--SRC=[XLJBRjj03BphAmXT2nleLGWCj6dHIrC4bli1ZCJQM-z3sAMT6a7-lVkK9KTfTP1sPuSS3aM91Kk2RnS5RNUW_YI5taDhVl4pMe9xYSx15u5xYwfoHw47z2lmBEBBG60i7qmrO7V4FK7zGCfOr3tMy5A1lxgOuD6QtzGnlBnEm1swunpvUYRDxW6rpsNdHpyCqnpPaZCdsqNqjKfOAfV-CEc-2CIG3vBE91jesNf_2MABteLjO9SM2RN6g0Qs_fxsmZrQSKQc1ZuR8mbrmabR8oNrBP_wK7K3tuNZkxpTZ2NzTDvAgUXQSqhoH9Atg8yBXVdTsvEOaefMT1kKibJsCQf5wQo4PnGIdoJjX1eJX7KhZQysSePazDCm6A5PJLpTAcMNYqgbCVVlr5foX1Q_snYDYcwidwpraZ5FarvqEd1fR0CzhoPrPcJK6GVnt_qSntXT0kxMwsksfkIR4EEm1LQQmINAQ3BGOil-oufDkh9YKFsnXjLg1RL2VQb7lT871vkgJ4AchXReJEW30hcyp4I-vI6dpcsgX1IMV-JY3ZWCf1q8xKaHct0cFJjWo78rEl_Qv-etVMr0HTgYjxSnyMVHmBCL74B-0W00]--></g></svg>